<mxfile host="Electron" agent="Mozilla/5.0 (Windows NT 10.0; Win64; x64) AppleWebKit/537.36 (KHTML, like Gecko) draw.io/28.1.2 Chrome/138.0.7204.243 Electron/37.4.0 Safari/537.36" version="28.1.2">
  <diagram name="Page-1" id="MTLl3sZyxJ7mdpb-O7oY">
    <mxGraphModel dx="1294" dy="912" grid="1" gridSize="10" guides="1" tooltips="1" connect="1" arrows="1" fold="1" page="1" pageScale="1" pageWidth="22200" pageHeight="11600" math="0" shadow="0">
      <root>
        <mxCell id="0" />
        <mxCell id="1" parent="0" />
        <mxCell id="fNg0JsLdywj-r3i3CZQy-13" value="library" style="swimlane;fontStyle=0;align=center;verticalAlign=top;childLayout=stackLayout;horizontal=1;startSize=55;horizontalStack=0;resizeParent=1;resizeParentMax=0;resizeLast=0;collapsible=0;marginBottom=0;html=1;whiteSpace=wrap;labelBackgroundColor=none;fillColor=#5D7F99;strokeColor=#D0CEE2;fontColor=#1A1A1A;" vertex="1" parent="1">
          <mxGeometry x="450" y="160" width="310" height="83" as="geometry" />
        </mxCell>
        <mxCell id="fNg0JsLdywj-r3i3CZQy-14" value="Book" style="text;html=1;strokeColor=none;fillColor=none;align=center;verticalAlign=middle;spacingLeft=4;spacingRight=4;overflow=hidden;rotatable=0;points=[[0,0.5],[1,0.5]];portConstraint=eastwest;whiteSpace=wrap;labelBackgroundColor=none;fontColor=#1A1A1A;" vertex="1" parent="fNg0JsLdywj-r3i3CZQy-13">
          <mxGeometry y="55" width="310" height="20" as="geometry" />
        </mxCell>
        <mxCell id="fNg0JsLdywj-r3i3CZQy-18" value="" style="line;strokeWidth=1;fillColor=none;align=left;verticalAlign=middle;spacingTop=-1;spacingLeft=3;spacingRight=3;rotatable=0;labelPosition=right;points=[];portConstraint=eastwest;labelBackgroundColor=none;strokeColor=#D0CEE2;fontColor=#1A1A1A;" vertex="1" parent="fNg0JsLdywj-r3i3CZQy-13">
          <mxGeometry y="75" width="310" height="8" as="geometry" />
        </mxCell>
        <mxCell id="fNg0JsLdywj-r3i3CZQy-31" value="Book" style="swimlane;fontStyle=0;align=center;verticalAlign=top;childLayout=stackLayout;horizontal=1;startSize=55;horizontalStack=0;resizeParent=1;resizeParentMax=0;resizeLast=0;collapsible=0;marginBottom=0;html=1;whiteSpace=wrap;labelBackgroundColor=none;fillColor=#5D7F99;strokeColor=#D0CEE2;fontColor=#1A1A1A;" vertex="1" parent="1">
          <mxGeometry x="495" y="550" width="350" height="118" as="geometry" />
        </mxCell>
        <mxCell id="fNg0JsLdywj-r3i3CZQy-32" value="magasine/&lt;div&gt;Study Book&lt;/div&gt;" style="text;html=1;strokeColor=none;fillColor=none;align=center;verticalAlign=middle;spacingLeft=4;spacingRight=4;overflow=hidden;rotatable=0;points=[[0,0.5],[1,0.5]];portConstraint=eastwest;whiteSpace=wrap;labelBackgroundColor=none;fontColor=#1A1A1A;" vertex="1" parent="fNg0JsLdywj-r3i3CZQy-31">
          <mxGeometry y="55" width="350" height="55" as="geometry" />
        </mxCell>
        <mxCell id="fNg0JsLdywj-r3i3CZQy-33" value="" style="line;strokeWidth=1;fillColor=none;align=left;verticalAlign=middle;spacingTop=-1;spacingLeft=3;spacingRight=3;rotatable=0;labelPosition=right;points=[];portConstraint=eastwest;labelBackgroundColor=none;strokeColor=#D0CEE2;fontColor=#1A1A1A;" vertex="1" parent="fNg0JsLdywj-r3i3CZQy-31">
          <mxGeometry y="110" width="350" height="8" as="geometry" />
        </mxCell>
        <mxCell id="fNg0JsLdywj-r3i3CZQy-36" value="Menbre" style="swimlane;fontStyle=0;align=center;verticalAlign=top;childLayout=stackLayout;horizontal=1;startSize=55;horizontalStack=0;resizeParent=1;resizeParentMax=0;resizeLast=0;collapsible=0;marginBottom=0;html=1;whiteSpace=wrap;labelBackgroundColor=none;fillColor=#5D7F99;strokeColor=#D0CEE2;fontColor=#1A1A1A;" vertex="1" parent="1">
          <mxGeometry x="795" y="170" width="270" height="63" as="geometry" />
        </mxCell>
        <mxCell id="fNg0JsLdywj-r3i3CZQy-38" value="" style="line;strokeWidth=1;fillColor=none;align=left;verticalAlign=middle;spacingTop=-1;spacingLeft=3;spacingRight=3;rotatable=0;labelPosition=right;points=[];portConstraint=eastwest;labelBackgroundColor=none;strokeColor=#D0CEE2;fontColor=#1A1A1A;" vertex="1" parent="fNg0JsLdywj-r3i3CZQy-36">
          <mxGeometry y="55" width="270" height="8" as="geometry" />
        </mxCell>
        <mxCell id="fNg0JsLdywj-r3i3CZQy-43" value="" style="endArrow=none;startArrow=none;endFill=0;startFill=0;endSize=8;html=1;verticalAlign=bottom;labelBackgroundColor=none;strokeWidth=3;rounded=0;entryX=0.074;entryY=0.625;entryDx=0;entryDy=0;entryPerimeter=0;strokeColor=#736CA8;fontColor=default;exitX=0.906;exitY=0.002;exitDx=0;exitDy=0;exitPerimeter=0;" edge="1" parent="1" source="fNg0JsLdywj-r3i3CZQy-31" target="fNg0JsLdywj-r3i3CZQy-38">
          <mxGeometry width="160" relative="1" as="geometry">
            <mxPoint x="800" y="540" as="sourcePoint" />
            <mxPoint x="1084.32" y="408.65999999999985" as="targetPoint" />
            <Array as="points" />
          </mxGeometry>
        </mxCell>
        <mxCell id="fNg0JsLdywj-r3i3CZQy-45" value="0*" style="text;html=1;align=center;verticalAlign=middle;whiteSpace=wrap;rounded=0;labelBackgroundColor=none;fontColor=#1A1A1A;" vertex="1" parent="1">
          <mxGeometry x="750" y="520" width="60" height="30" as="geometry" />
        </mxCell>
        <mxCell id="fNg0JsLdywj-r3i3CZQy-46" value="loan record" style="swimlane;fontStyle=0;align=center;verticalAlign=top;childLayout=stackLayout;horizontal=1;startSize=55;horizontalStack=0;resizeParent=1;resizeParentMax=0;resizeLast=0;collapsible=0;marginBottom=0;html=1;whiteSpace=wrap;labelBackgroundColor=none;fillColor=#5D7F99;strokeColor=#D0CEE2;fontColor=#1A1A1A;" vertex="1" parent="1">
          <mxGeometry x="970" y="320" width="270" height="118" as="geometry" />
        </mxCell>
        <mxCell id="fNg0JsLdywj-r3i3CZQy-47" value="brrow date&amp;nbsp;&lt;div&gt;return date&amp;nbsp;&lt;/div&gt;" style="text;html=1;strokeColor=none;fillColor=none;align=center;verticalAlign=middle;spacingLeft=4;spacingRight=4;overflow=hidden;rotatable=0;points=[[0,0.5],[1,0.5]];portConstraint=eastwest;whiteSpace=wrap;labelBackgroundColor=none;fontColor=#1A1A1A;" vertex="1" parent="fNg0JsLdywj-r3i3CZQy-46">
          <mxGeometry y="55" width="270" height="55" as="geometry" />
        </mxCell>
        <mxCell id="fNg0JsLdywj-r3i3CZQy-48" value="" style="line;strokeWidth=1;fillColor=none;align=left;verticalAlign=middle;spacingTop=-1;spacingLeft=3;spacingRight=3;rotatable=0;labelPosition=right;points=[];portConstraint=eastwest;labelBackgroundColor=none;strokeColor=#D0CEE2;fontColor=#1A1A1A;" vertex="1" parent="fNg0JsLdywj-r3i3CZQy-46">
          <mxGeometry y="110" width="270" height="8" as="geometry" />
        </mxCell>
        <mxCell id="fNg0JsLdywj-r3i3CZQy-51" value="&lt;font style=&quot;font-size: 24px;&quot;&gt;laptops:&lt;/font&gt;" style="text;html=1;align=center;verticalAlign=middle;whiteSpace=wrap;rounded=0;labelBackgroundColor=none;fontColor=#1A1A1A;" vertex="1" parent="1">
          <mxGeometry x="410" y="730" width="210" height="60" as="geometry" />
        </mxCell>
        <mxCell id="fNg0JsLdywj-r3i3CZQy-59" value="laptops" style="swimlane;fontStyle=0;align=center;verticalAlign=top;childLayout=stackLayout;horizontal=1;startSize=55;horizontalStack=0;resizeParent=1;resizeParentMax=0;resizeLast=0;collapsible=0;marginBottom=0;html=1;whiteSpace=wrap;labelBackgroundColor=none;fillColor=#5D7F99;strokeColor=#D0CEE2;fontColor=#1A1A1A;" vertex="1" parent="1">
          <mxGeometry x="570" y="830" width="280" height="118" as="geometry" />
        </mxCell>
        <mxCell id="fNg0JsLdywj-r3i3CZQy-60" value="&lt;br&gt;&lt;div&gt;purchase price&lt;/div&gt;" style="text;html=1;strokeColor=none;fillColor=none;align=center;verticalAlign=middle;spacingLeft=4;spacingRight=4;overflow=hidden;rotatable=0;points=[[0,0.5],[1,0.5]];portConstraint=eastwest;whiteSpace=wrap;labelBackgroundColor=none;fontColor=#1A1A1A;" vertex="1" parent="fNg0JsLdywj-r3i3CZQy-59">
          <mxGeometry y="55" width="280" height="55" as="geometry" />
        </mxCell>
        <mxCell id="fNg0JsLdywj-r3i3CZQy-61" value="" style="line;strokeWidth=1;fillColor=none;align=left;verticalAlign=middle;spacingTop=-1;spacingLeft=3;spacingRight=3;rotatable=0;labelPosition=right;points=[];portConstraint=eastwest;labelBackgroundColor=none;strokeColor=#D0CEE2;fontColor=#1A1A1A;" vertex="1" parent="fNg0JsLdywj-r3i3CZQy-59">
          <mxGeometry y="110" width="280" height="8" as="geometry" />
        </mxCell>
        <mxCell id="fNg0JsLdywj-r3i3CZQy-65" value="owner" style="swimlane;fontStyle=0;align=center;verticalAlign=top;childLayout=stackLayout;horizontal=1;startSize=55;horizontalStack=0;resizeParent=1;resizeParentMax=0;resizeLast=0;collapsible=0;marginBottom=0;html=1;whiteSpace=wrap;labelBackgroundColor=none;fillColor=#5D7F99;strokeColor=#D0CEE2;fontColor=#1A1A1A;" vertex="1" parent="1">
          <mxGeometry x="530" y="1060" width="270" height="118" as="geometry" />
        </mxCell>
        <mxCell id="fNg0JsLdywj-r3i3CZQy-66" value="name&amp;nbsp;&lt;div&gt;first name&lt;/div&gt;" style="text;html=1;strokeColor=none;fillColor=none;align=center;verticalAlign=middle;spacingLeft=4;spacingRight=4;overflow=hidden;rotatable=0;points=[[0,0.5],[1,0.5]];portConstraint=eastwest;whiteSpace=wrap;labelBackgroundColor=none;fontColor=#1A1A1A;" vertex="1" parent="fNg0JsLdywj-r3i3CZQy-65">
          <mxGeometry y="55" width="270" height="55" as="geometry" />
        </mxCell>
        <mxCell id="fNg0JsLdywj-r3i3CZQy-67" value="" style="line;strokeWidth=1;fillColor=none;align=left;verticalAlign=middle;spacingTop=-1;spacingLeft=3;spacingRight=3;rotatable=0;labelPosition=right;points=[];portConstraint=eastwest;labelBackgroundColor=none;strokeColor=#D0CEE2;fontColor=#1A1A1A;" vertex="1" parent="fNg0JsLdywj-r3i3CZQy-65">
          <mxGeometry y="110" width="270" height="8" as="geometry" />
        </mxCell>
        <mxCell id="fNg0JsLdywj-r3i3CZQy-68" value="" style="endArrow=none;startArrow=none;endFill=0;startFill=0;endSize=8;html=1;verticalAlign=bottom;labelBackgroundColor=none;strokeWidth=3;rounded=0;exitX=0.557;exitY=0;exitDx=0;exitDy=0;exitPerimeter=0;strokeColor=#736CA8;fontColor=default;" edge="1" parent="1" source="fNg0JsLdywj-r3i3CZQy-65">
          <mxGeometry width="160" relative="1" as="geometry">
            <mxPoint x="570" y="1030" as="sourcePoint" />
            <mxPoint x="680" y="950" as="targetPoint" />
          </mxGeometry>
        </mxCell>
        <mxCell id="fNg0JsLdywj-r3i3CZQy-69" value="key board" style="swimlane;fontStyle=0;align=center;verticalAlign=top;childLayout=stackLayout;horizontal=1;startSize=55;horizontalStack=0;resizeParent=1;resizeParentMax=0;resizeLast=0;collapsible=0;marginBottom=0;html=1;whiteSpace=wrap;labelBackgroundColor=none;fillColor=#5D7F99;strokeColor=#D0CEE2;fontColor=#1A1A1A;" vertex="1" parent="1">
          <mxGeometry x="1090" y="840" width="270" height="63" as="geometry" />
        </mxCell>
        <mxCell id="fNg0JsLdywj-r3i3CZQy-71" value="" style="line;strokeWidth=1;fillColor=none;align=left;verticalAlign=middle;spacingTop=-1;spacingLeft=3;spacingRight=3;rotatable=0;labelPosition=right;points=[];portConstraint=eastwest;labelBackgroundColor=none;strokeColor=#D0CEE2;fontColor=#1A1A1A;" vertex="1" parent="fNg0JsLdywj-r3i3CZQy-69">
          <mxGeometry y="55" width="270" height="8" as="geometry" />
        </mxCell>
        <mxCell id="fNg0JsLdywj-r3i3CZQy-73" value="0..1" style="text;html=1;align=center;verticalAlign=middle;whiteSpace=wrap;rounded=0;labelBackgroundColor=none;fontColor=#1A1A1A;" vertex="1" parent="1">
          <mxGeometry x="560" y="1020" width="60" height="30" as="geometry" />
        </mxCell>
        <mxCell id="fNg0JsLdywj-r3i3CZQy-97" value="&lt;font style=&quot;font-size: 27px;&quot;&gt;&lt;b style=&quot;&quot;&gt;Exercise 2:&lt;/b&gt;&lt;/font&gt;" style="text;html=1;align=center;verticalAlign=middle;whiteSpace=wrap;rounded=0;fontColor=#1A1A1A;labelBackgroundColor=none;" vertex="1" parent="1">
          <mxGeometry x="450" y="1230" width="180" height="90" as="geometry" />
        </mxCell>
        <mxCell id="fNg0JsLdywj-r3i3CZQy-98" value="&lt;font style=&quot;font-size: 22px;&quot;&gt;&lt;b style=&quot;&quot;&gt;library:&lt;/b&gt;&lt;/font&gt;" style="text;html=1;align=center;verticalAlign=middle;whiteSpace=wrap;rounded=0;labelBackgroundColor=none;fontColor=#1A1A1A;" vertex="1" parent="1">
          <mxGeometry x="410" y="70" width="210" height="60" as="geometry" />
        </mxCell>
        <mxCell id="fNg0JsLdywj-r3i3CZQy-103" value="ingredient&amp;nbsp;" style="swimlane;fontStyle=0;align=center;verticalAlign=top;childLayout=stackLayout;horizontal=1;startSize=55;horizontalStack=0;resizeParent=1;resizeParentMax=0;resizeLast=0;collapsible=0;marginBottom=0;html=1;whiteSpace=wrap;strokeColor=#D0CEE2;fontColor=#1A1A1A;fillColor=#5D7F99;labelBackgroundColor=none;" vertex="1" parent="1">
          <mxGeometry x="600" y="1320" width="140" height="113" as="geometry" />
        </mxCell>
        <mxCell id="fNg0JsLdywj-r3i3CZQy-105" value="name&lt;div&gt;quantity&lt;/div&gt;&lt;div&gt;unit of measurment&amp;nbsp;&lt;/div&gt;" style="text;html=1;strokeColor=none;fillColor=none;align=left;verticalAlign=middle;spacingLeft=4;spacingRight=4;overflow=hidden;rotatable=0;points=[[0,0.5],[1,0.5]];portConstraint=eastwest;whiteSpace=wrap;fontColor=#1A1A1A;labelBackgroundColor=none;" vertex="1" parent="fNg0JsLdywj-r3i3CZQy-103">
          <mxGeometry y="55" width="140" height="50" as="geometry" />
        </mxCell>
        <mxCell id="fNg0JsLdywj-r3i3CZQy-108" value="" style="line;strokeWidth=1;fillColor=none;align=left;verticalAlign=middle;spacingTop=-1;spacingLeft=3;spacingRight=3;rotatable=0;labelPosition=right;points=[];portConstraint=eastwest;strokeColor=#D0CEE2;fontColor=#1A1A1A;labelBackgroundColor=none;" vertex="1" parent="fNg0JsLdywj-r3i3CZQy-103">
          <mxGeometry y="105" width="140" height="8" as="geometry" />
        </mxCell>
        <mxCell id="fNg0JsLdywj-r3i3CZQy-111" value="Text" style="text;html=1;align=center;verticalAlign=middle;whiteSpace=wrap;rounded=0;fontColor=#1A1A1A;labelBackgroundColor=none;" vertex="1" parent="1">
          <mxGeometry x="590" y="950" width="60" height="30" as="geometry" />
        </mxCell>
        <mxCell id="fNg0JsLdywj-r3i3CZQy-112" value="key" style="swimlane;fontStyle=0;align=center;verticalAlign=top;childLayout=stackLayout;horizontal=1;startSize=55;horizontalStack=0;resizeParent=1;resizeParentMax=0;resizeLast=0;collapsible=0;marginBottom=0;html=1;whiteSpace=wrap;labelBackgroundColor=none;fillColor=#5D7F99;strokeColor=#D0CEE2;fontColor=#1A1A1A;" vertex="1" parent="1">
          <mxGeometry x="1090" y="1140" width="270" height="63" as="geometry" />
        </mxCell>
        <mxCell id="fNg0JsLdywj-r3i3CZQy-113" value="" style="line;strokeWidth=1;fillColor=none;align=left;verticalAlign=middle;spacingTop=-1;spacingLeft=3;spacingRight=3;rotatable=0;labelPosition=right;points=[];portConstraint=eastwest;labelBackgroundColor=none;strokeColor=#D0CEE2;fontColor=#1A1A1A;" vertex="1" parent="fNg0JsLdywj-r3i3CZQy-112">
          <mxGeometry y="55" width="270" height="8" as="geometry" />
        </mxCell>
        <mxCell id="fNg0JsLdywj-r3i3CZQy-115" value="" style="endArrow=diamondThin;endFill=1;endSize=24;html=1;rounded=0;exitX=0.556;exitY=0;exitDx=0;exitDy=0;exitPerimeter=0;labelBackgroundColor=none;strokeColor=#736CA8;fontColor=default;" edge="1" parent="1" source="fNg0JsLdywj-r3i3CZQy-112">
          <mxGeometry width="160" relative="1" as="geometry">
            <mxPoint x="1261" y="1255" as="sourcePoint" />
            <mxPoint x="1240" y="903" as="targetPoint" />
          </mxGeometry>
        </mxCell>
        <mxCell id="fNg0JsLdywj-r3i3CZQy-116" value="" style="edgeLabel;html=1;align=center;verticalAlign=middle;resizable=0;points=[];strokeColor=#D0CEE2;fontColor=#1A1A1A;fillColor=#5D7F99;labelBackgroundColor=none;" vertex="1" connectable="0" parent="fNg0JsLdywj-r3i3CZQy-115">
          <mxGeometry x="-0.6012" y="4" relative="1" as="geometry">
            <mxPoint as="offset" />
          </mxGeometry>
        </mxCell>
        <mxCell id="fNg0JsLdywj-r3i3CZQy-117" value="dish&amp;nbsp;" style="swimlane;fontStyle=0;align=center;verticalAlign=top;childLayout=stackLayout;horizontal=1;startSize=55;horizontalStack=0;resizeParent=1;resizeParentMax=0;resizeLast=0;collapsible=0;marginBottom=0;html=1;whiteSpace=wrap;strokeColor=#D0CEE2;fontColor=#1A1A1A;fillColor=#5D7F99;labelBackgroundColor=none;" vertex="1" parent="1">
          <mxGeometry x="600" y="1520" width="140" height="98" as="geometry" />
        </mxCell>
        <mxCell id="fNg0JsLdywj-r3i3CZQy-118" value="name&lt;div&gt;id&lt;/div&gt;" style="text;html=1;strokeColor=none;fillColor=none;align=left;verticalAlign=middle;spacingLeft=4;spacingRight=4;overflow=hidden;rotatable=0;points=[[0,0.5],[1,0.5]];portConstraint=eastwest;whiteSpace=wrap;fontColor=#1A1A1A;labelBackgroundColor=none;" vertex="1" parent="fNg0JsLdywj-r3i3CZQy-117">
          <mxGeometry y="55" width="140" height="35" as="geometry" />
        </mxCell>
        <mxCell id="fNg0JsLdywj-r3i3CZQy-119" value="" style="line;strokeWidth=1;fillColor=none;align=left;verticalAlign=middle;spacingTop=-1;spacingLeft=3;spacingRight=3;rotatable=0;labelPosition=right;points=[];portConstraint=eastwest;strokeColor=#D0CEE2;fontColor=#1A1A1A;labelBackgroundColor=none;" vertex="1" parent="fNg0JsLdywj-r3i3CZQy-117">
          <mxGeometry y="90" width="140" height="8" as="geometry" />
        </mxCell>
        <mxCell id="fNg0JsLdywj-r3i3CZQy-123" value="1..*" style="text;html=1;align=center;verticalAlign=middle;whiteSpace=wrap;rounded=0;fontColor=#1A1A1A;labelBackgroundColor=none;" vertex="1" parent="1">
          <mxGeometry x="570" y="1420" width="60" height="30" as="geometry" />
        </mxCell>
        <mxCell id="fNg0JsLdywj-r3i3CZQy-124" value="meal" style="swimlane;fontStyle=0;align=center;verticalAlign=top;childLayout=stackLayout;horizontal=1;startSize=55;horizontalStack=0;resizeParent=1;resizeParentMax=0;resizeLast=0;collapsible=0;marginBottom=0;html=1;whiteSpace=wrap;strokeColor=#D0CEE2;fontColor=#1A1A1A;fillColor=#5D7F99;labelBackgroundColor=none;" vertex="1" parent="1">
          <mxGeometry x="910" y="1480" width="140" height="148" as="geometry" />
        </mxCell>
        <mxCell id="fNg0JsLdywj-r3i3CZQy-125" value="name&lt;div&gt;id&lt;/div&gt;&lt;div&gt;start date&amp;nbsp;&lt;/div&gt;&lt;div&gt;end date&amp;nbsp;&lt;/div&gt;&lt;div&gt;&lt;br&gt;&lt;/div&gt;" style="text;html=1;strokeColor=none;fillColor=none;align=left;verticalAlign=middle;spacingLeft=4;spacingRight=4;overflow=hidden;rotatable=0;points=[[0,0.5],[1,0.5]];portConstraint=eastwest;whiteSpace=wrap;fontColor=#1A1A1A;labelBackgroundColor=none;" vertex="1" parent="fNg0JsLdywj-r3i3CZQy-124">
          <mxGeometry y="55" width="140" height="85" as="geometry" />
        </mxCell>
        <mxCell id="fNg0JsLdywj-r3i3CZQy-126" value="" style="line;strokeWidth=1;fillColor=none;align=left;verticalAlign=middle;spacingTop=-1;spacingLeft=3;spacingRight=3;rotatable=0;labelPosition=right;points=[];portConstraint=eastwest;strokeColor=#D0CEE2;fontColor=#1A1A1A;labelBackgroundColor=none;" vertex="1" parent="fNg0JsLdywj-r3i3CZQy-124">
          <mxGeometry y="140" width="140" height="8" as="geometry" />
        </mxCell>
        <mxCell id="fNg0JsLdywj-r3i3CZQy-127" value="" style="endArrow=none;startArrow=none;endFill=0;startFill=0;endSize=8;html=1;verticalAlign=bottom;labelBackgroundColor=none;strokeWidth=3;rounded=0;strokeColor=#736CA8;fontColor=default;exitX=1.007;exitY=0.402;exitDx=0;exitDy=0;entryX=0;entryY=0.287;entryDx=0;entryDy=0;entryPerimeter=0;exitPerimeter=0;" edge="1" parent="1" source="fNg0JsLdywj-r3i3CZQy-117" target="fNg0JsLdywj-r3i3CZQy-125">
          <mxGeometry width="160" relative="1" as="geometry">
            <mxPoint x="780" y="1530" as="sourcePoint" />
            <mxPoint x="940" y="1530" as="targetPoint" />
          </mxGeometry>
        </mxCell>
        <mxCell id="fNg0JsLdywj-r3i3CZQy-128" value="1..*" style="text;html=1;align=center;verticalAlign=middle;whiteSpace=wrap;rounded=0;fontColor=#1A1A1A;labelBackgroundColor=none;" vertex="1" parent="1">
          <mxGeometry x="740" y="1520" width="60" height="30" as="geometry" />
        </mxCell>
        <mxCell id="fNg0JsLdywj-r3i3CZQy-129" value="table" style="swimlane;fontStyle=0;align=center;verticalAlign=top;childLayout=stackLayout;horizontal=1;startSize=55;horizontalStack=0;resizeParent=1;resizeParentMax=0;resizeLast=0;collapsible=0;marginBottom=0;html=1;whiteSpace=wrap;strokeColor=#D0CEE2;fontColor=#1A1A1A;fillColor=#5D7F99;labelBackgroundColor=none;" vertex="1" parent="1">
          <mxGeometry x="890" y="1310" width="140" height="98" as="geometry" />
        </mxCell>
        <mxCell id="fNg0JsLdywj-r3i3CZQy-130" value="id maximun number of people&amp;nbsp;" style="text;html=1;strokeColor=none;fillColor=none;align=left;verticalAlign=middle;spacingLeft=4;spacingRight=4;overflow=hidden;rotatable=0;points=[[0,0.5],[1,0.5]];portConstraint=eastwest;whiteSpace=wrap;fontColor=#1A1A1A;labelBackgroundColor=none;" vertex="1" parent="fNg0JsLdywj-r3i3CZQy-129">
          <mxGeometry y="55" width="140" height="35" as="geometry" />
        </mxCell>
        <mxCell id="fNg0JsLdywj-r3i3CZQy-131" value="" style="line;strokeWidth=1;fillColor=none;align=left;verticalAlign=middle;spacingTop=-1;spacingLeft=3;spacingRight=3;rotatable=0;labelPosition=right;points=[];portConstraint=eastwest;strokeColor=#D0CEE2;fontColor=#1A1A1A;labelBackgroundColor=none;" vertex="1" parent="fNg0JsLdywj-r3i3CZQy-129">
          <mxGeometry y="90" width="140" height="8" as="geometry" />
        </mxCell>
        <mxCell id="fNg0JsLdywj-r3i3CZQy-135" value="1..*" style="text;html=1;align=center;verticalAlign=middle;whiteSpace=wrap;rounded=0;fontColor=#1A1A1A;labelBackgroundColor=none;" vertex="1" parent="1">
          <mxGeometry x="570" y="1480" width="60" height="30" as="geometry" />
        </mxCell>
        <mxCell id="fNg0JsLdywj-r3i3CZQy-136" value="" style="endArrow=none;startArrow=none;endFill=0;startFill=0;endSize=8;html=1;verticalAlign=bottom;labelBackgroundColor=none;strokeWidth=3;rounded=0;strokeColor=#736CA8;fontColor=default;exitX=0.348;exitY=0.011;exitDx=0;exitDy=0;exitPerimeter=0;" edge="1" parent="1" source="fNg0JsLdywj-r3i3CZQy-124" target="fNg0JsLdywj-r3i3CZQy-131">
          <mxGeometry width="160" relative="1" as="geometry">
            <mxPoint x="960" y="1470" as="sourcePoint" />
            <mxPoint x="1058" y="1440" as="targetPoint" />
          </mxGeometry>
        </mxCell>
        <mxCell id="fNg0JsLdywj-r3i3CZQy-138" value="waiter&amp;nbsp;" style="swimlane;fontStyle=0;align=center;verticalAlign=top;childLayout=stackLayout;horizontal=1;startSize=55;horizontalStack=0;resizeParent=1;resizeParentMax=0;resizeLast=0;collapsible=0;marginBottom=0;html=1;whiteSpace=wrap;strokeColor=#D0CEE2;fontColor=#1A1A1A;fillColor=#5D7F99;labelBackgroundColor=none;" vertex="1" parent="1">
          <mxGeometry x="900" y="1740" width="140" height="148" as="geometry" />
        </mxCell>
        <mxCell id="fNg0JsLdywj-r3i3CZQy-139" value="name&lt;div&gt;id&lt;/div&gt;&lt;div&gt;adress&lt;/div&gt;&lt;div&gt;phone number&lt;/div&gt;" style="text;html=1;strokeColor=none;fillColor=none;align=left;verticalAlign=middle;spacingLeft=4;spacingRight=4;overflow=hidden;rotatable=0;points=[[0,0.5],[1,0.5]];portConstraint=eastwest;whiteSpace=wrap;fontColor=#1A1A1A;labelBackgroundColor=none;" vertex="1" parent="fNg0JsLdywj-r3i3CZQy-138">
          <mxGeometry y="55" width="140" height="85" as="geometry" />
        </mxCell>
        <mxCell id="fNg0JsLdywj-r3i3CZQy-140" value="" style="line;strokeWidth=1;fillColor=none;align=left;verticalAlign=middle;spacingTop=-1;spacingLeft=3;spacingRight=3;rotatable=0;labelPosition=right;points=[];portConstraint=eastwest;strokeColor=#D0CEE2;fontColor=#1A1A1A;labelBackgroundColor=none;" vertex="1" parent="fNg0JsLdywj-r3i3CZQy-138">
          <mxGeometry y="140" width="140" height="8" as="geometry" />
        </mxCell>
        <mxCell id="fNg0JsLdywj-r3i3CZQy-141" value="1" style="text;html=1;align=center;verticalAlign=middle;whiteSpace=wrap;rounded=0;fontColor=#1A1A1A;labelBackgroundColor=none;" vertex="1" parent="1">
          <mxGeometry x="890" y="1710" width="60" height="30" as="geometry" />
        </mxCell>
        <mxCell id="fNg0JsLdywj-r3i3CZQy-142" value="1..*" style="text;html=1;align=center;verticalAlign=middle;whiteSpace=wrap;rounded=0;fontColor=#1A1A1A;labelBackgroundColor=none;" vertex="1" parent="1">
          <mxGeometry x="845" y="1520" width="60" height="30" as="geometry" />
        </mxCell>
        <mxCell id="fNg0JsLdywj-r3i3CZQy-143" value="Customer" style="swimlane;fontStyle=0;align=center;verticalAlign=top;childLayout=stackLayout;horizontal=1;startSize=55;horizontalStack=0;resizeParent=1;resizeParentMax=0;resizeLast=0;collapsible=0;marginBottom=0;html=1;whiteSpace=wrap;strokeColor=#D0CEE2;fontColor=#1A1A1A;fillColor=#5D7F99;labelBackgroundColor=none;" vertex="1" parent="1">
          <mxGeometry x="1180" y="1480" width="140" height="148" as="geometry" />
        </mxCell>
        <mxCell id="fNg0JsLdywj-r3i3CZQy-144" value="name&amp;nbsp;&lt;div&gt;number&amp;nbsp;&lt;/div&gt;&lt;div&gt;adress&lt;/div&gt;" style="text;html=1;strokeColor=none;fillColor=none;align=left;verticalAlign=middle;spacingLeft=4;spacingRight=4;overflow=hidden;rotatable=0;points=[[0,0.5],[1,0.5]];portConstraint=eastwest;whiteSpace=wrap;fontColor=#1A1A1A;labelBackgroundColor=none;" vertex="1" parent="fNg0JsLdywj-r3i3CZQy-143">
          <mxGeometry y="55" width="140" height="85" as="geometry" />
        </mxCell>
        <mxCell id="fNg0JsLdywj-r3i3CZQy-145" value="" style="line;strokeWidth=1;fillColor=none;align=left;verticalAlign=middle;spacingTop=-1;spacingLeft=3;spacingRight=3;rotatable=0;labelPosition=right;points=[];portConstraint=eastwest;strokeColor=#D0CEE2;fontColor=#1A1A1A;labelBackgroundColor=none;" vertex="1" parent="fNg0JsLdywj-r3i3CZQy-143">
          <mxGeometry y="140" width="140" height="8" as="geometry" />
        </mxCell>
        <mxCell id="fNg0JsLdywj-r3i3CZQy-150" value="" style="endArrow=none;startArrow=none;endFill=0;startFill=0;endSize=8;html=1;verticalAlign=bottom;labelBackgroundColor=none;strokeWidth=3;rounded=0;strokeColor=#736CA8;fontColor=default;exitX=1.002;exitY=0.287;exitDx=0;exitDy=0;exitPerimeter=0;entryX=0;entryY=0.294;entryDx=0;entryDy=0;entryPerimeter=0;" edge="1" parent="1" source="fNg0JsLdywj-r3i3CZQy-125" target="fNg0JsLdywj-r3i3CZQy-144">
          <mxGeometry width="160" relative="1" as="geometry">
            <mxPoint x="1060" y="1553" as="sourcePoint" />
            <mxPoint x="1180" y="1550" as="targetPoint" />
          </mxGeometry>
        </mxCell>
        <mxCell id="fNg0JsLdywj-r3i3CZQy-151" value="&lt;b&gt;&lt;font style=&quot;font-size: 28px;&quot;&gt;Exercise 3 :&lt;/font&gt;&lt;/b&gt;" style="text;html=1;align=center;verticalAlign=middle;whiteSpace=wrap;rounded=0;fontColor=#1A1A1A;labelBackgroundColor=none;" vertex="1" parent="1">
          <mxGeometry x="470" y="1900" width="180" height="70" as="geometry" />
        </mxCell>
        <mxCell id="fNg0JsLdywj-r3i3CZQy-152" value="College" style="swimlane;fontStyle=0;align=center;verticalAlign=top;childLayout=stackLayout;horizontal=1;startSize=55;horizontalStack=0;resizeParent=1;resizeParentMax=0;resizeLast=0;collapsible=0;marginBottom=0;html=1;whiteSpace=wrap;strokeColor=#D0CEE2;fontColor=#1A1A1A;fillColor=#5D7F99;labelBackgroundColor=none;" vertex="1" parent="1">
          <mxGeometry x="640" y="2010" width="140" height="113" as="geometry" />
        </mxCell>
        <mxCell id="fNg0JsLdywj-r3i3CZQy-153" value="name&lt;div&gt;website&amp;nbsp;&lt;/div&gt;" style="text;html=1;strokeColor=none;fillColor=none;align=left;verticalAlign=middle;spacingLeft=4;spacingRight=4;overflow=hidden;rotatable=0;points=[[0,0.5],[1,0.5]];portConstraint=eastwest;whiteSpace=wrap;fontColor=#1A1A1A;labelBackgroundColor=none;" vertex="1" parent="fNg0JsLdywj-r3i3CZQy-152">
          <mxGeometry y="55" width="140" height="50" as="geometry" />
        </mxCell>
        <mxCell id="fNg0JsLdywj-r3i3CZQy-154" value="" style="line;strokeWidth=1;fillColor=none;align=left;verticalAlign=middle;spacingTop=-1;spacingLeft=3;spacingRight=3;rotatable=0;labelPosition=right;points=[];portConstraint=eastwest;strokeColor=#D0CEE2;fontColor=#1A1A1A;labelBackgroundColor=none;" vertex="1" parent="fNg0JsLdywj-r3i3CZQy-152">
          <mxGeometry y="105" width="140" height="8" as="geometry" />
        </mxCell>
        <mxCell id="fNg0JsLdywj-r3i3CZQy-155" value="department&amp;nbsp;" style="swimlane;fontStyle=0;align=center;verticalAlign=top;childLayout=stackLayout;horizontal=1;startSize=55;horizontalStack=0;resizeParent=1;resizeParentMax=0;resizeLast=0;collapsible=0;marginBottom=0;html=1;whiteSpace=wrap;strokeColor=#D0CEE2;fontColor=#1A1A1A;fillColor=#5D7F99;labelBackgroundColor=none;" vertex="1" parent="1">
          <mxGeometry x="640" y="2200" width="140" height="113" as="geometry" />
        </mxCell>
        <mxCell id="fNg0JsLdywj-r3i3CZQy-156" value="group of teachers&amp;nbsp;" style="text;html=1;strokeColor=none;fillColor=none;align=left;verticalAlign=middle;spacingLeft=4;spacingRight=4;overflow=hidden;rotatable=0;points=[[0,0.5],[1,0.5]];portConstraint=eastwest;whiteSpace=wrap;fontColor=#1A1A1A;labelBackgroundColor=none;" vertex="1" parent="fNg0JsLdywj-r3i3CZQy-155">
          <mxGeometry y="55" width="140" height="50" as="geometry" />
        </mxCell>
        <mxCell id="fNg0JsLdywj-r3i3CZQy-157" value="" style="line;strokeWidth=1;fillColor=none;align=left;verticalAlign=middle;spacingTop=-1;spacingLeft=3;spacingRight=3;rotatable=0;labelPosition=right;points=[];portConstraint=eastwest;strokeColor=#D0CEE2;fontColor=#1A1A1A;labelBackgroundColor=none;" vertex="1" parent="fNg0JsLdywj-r3i3CZQy-155">
          <mxGeometry y="105" width="140" height="8" as="geometry" />
        </mxCell>
        <mxCell id="fNg0JsLdywj-r3i3CZQy-158" value="teacher" style="swimlane;fontStyle=0;align=center;verticalAlign=top;childLayout=stackLayout;horizontal=1;startSize=55;horizontalStack=0;resizeParent=1;resizeParentMax=0;resizeLast=0;collapsible=0;marginBottom=0;html=1;whiteSpace=wrap;strokeColor=#D0CEE2;fontColor=#1A1A1A;fillColor=#5D7F99;labelBackgroundColor=none;" vertex="1" parent="1">
          <mxGeometry x="900" y="2173" width="140" height="140" as="geometry" />
        </mxCell>
        <mxCell id="fNg0JsLdywj-r3i3CZQy-164" value="last name&amp;nbsp;&lt;div&gt;first name&lt;/div&gt;&lt;div&gt;phone num&lt;/div&gt;&lt;div&gt;email&lt;/div&gt;&lt;div&gt;start date&amp;nbsp;&lt;/div&gt;&lt;div&gt;&lt;div&gt;&lt;br&gt;&lt;/div&gt;&lt;/div&gt;" style="text;html=1;align=center;verticalAlign=middle;whiteSpace=wrap;rounded=0;fontColor=#1A1A1A;labelBackgroundColor=none;" vertex="1" parent="fNg0JsLdywj-r3i3CZQy-158">
          <mxGeometry y="55" width="140" height="85" as="geometry" />
        </mxCell>
        <mxCell id="fNg0JsLdywj-r3i3CZQy-165" value="Subject" style="swimlane;fontStyle=0;align=center;verticalAlign=top;childLayout=stackLayout;horizontal=1;startSize=55;horizontalStack=0;resizeParent=1;resizeParentMax=0;resizeLast=0;collapsible=0;marginBottom=0;html=1;whiteSpace=wrap;strokeColor=#D0CEE2;fontColor=#1A1A1A;fillColor=#5D7F99;labelBackgroundColor=none;" vertex="1" parent="1">
          <mxGeometry x="900" y="2420" width="140" height="140" as="geometry" />
        </mxCell>
        <mxCell id="fNg0JsLdywj-r3i3CZQy-166" value="&lt;div&gt;&lt;div&gt;&lt;br&gt;&lt;/div&gt;&lt;/div&gt;" style="text;html=1;align=center;verticalAlign=middle;whiteSpace=wrap;rounded=0;fontColor=#1A1A1A;labelBackgroundColor=none;" vertex="1" parent="fNg0JsLdywj-r3i3CZQy-165">
          <mxGeometry y="55" width="140" height="85" as="geometry" />
        </mxCell>
        <mxCell id="fNg0JsLdywj-r3i3CZQy-168" value="1" style="text;html=1;align=center;verticalAlign=middle;whiteSpace=wrap;rounded=0;fontColor=#1A1A1A;labelBackgroundColor=none;" vertex="1" parent="1">
          <mxGeometry x="905" y="1408" width="60" height="30" as="geometry" />
        </mxCell>
        <mxCell id="fNg0JsLdywj-r3i3CZQy-171" value="" style="endArrow=diamondThin;endFill=0;endSize=24;html=1;rounded=0;strokeColor=#736CA8;fontColor=default;exitX=0.416;exitY=0.969;exitDx=0;exitDy=0;exitPerimeter=0;labelBackgroundColor=none;" edge="1" parent="1" source="fNg0JsLdywj-r3i3CZQy-108">
          <mxGeometry width="160" relative="1" as="geometry">
            <mxPoint x="710" y="1680" as="sourcePoint" />
            <mxPoint x="660" y="1520" as="targetPoint" />
          </mxGeometry>
        </mxCell>
        <mxCell id="fNg0JsLdywj-r3i3CZQy-173" value="1" style="text;html=1;align=center;verticalAlign=middle;whiteSpace=wrap;rounded=0;fontColor=#1A1A1A;labelBackgroundColor=none;" vertex="1" parent="1">
          <mxGeometry x="920" y="2350" width="60" height="30" as="geometry" />
        </mxCell>
        <mxCell id="fNg0JsLdywj-r3i3CZQy-175" value="" style="endArrow=none;startArrow=none;endFill=0;startFill=0;endSize=8;html=1;verticalAlign=bottom;labelBackgroundColor=none;strokeWidth=3;rounded=0;strokeColor=#736CA8;fontColor=default;" edge="1" parent="1">
          <mxGeometry width="160" relative="1" as="geometry">
            <mxPoint x="960" y="1740" as="sourcePoint" />
            <mxPoint x="960" y="1630" as="targetPoint" />
          </mxGeometry>
        </mxCell>
        <mxCell id="fNg0JsLdywj-r3i3CZQy-179" value="student&amp;nbsp;" style="swimlane;fontStyle=0;align=center;verticalAlign=top;childLayout=stackLayout;horizontal=1;startSize=55;horizontalStack=0;resizeParent=1;resizeParentMax=0;resizeLast=0;collapsible=0;marginBottom=0;html=1;whiteSpace=wrap;strokeColor=#D0CEE2;fontColor=#1A1A1A;fillColor=#5D7F99;labelBackgroundColor=none;" vertex="1" parent="1">
          <mxGeometry x="1350" y="2420" width="140" height="140" as="geometry" />
        </mxCell>
        <mxCell id="fNg0JsLdywj-r3i3CZQy-180" value="&lt;div&gt;&lt;div&gt;last name&lt;/div&gt;&lt;/div&gt;&lt;div&gt;first name&amp;nbsp;&lt;/div&gt;&lt;div&gt;phone num&lt;/div&gt;&lt;div&gt;email&amp;nbsp;&lt;/div&gt;&lt;div&gt;year of entry into college&amp;nbsp;&lt;/div&gt;" style="text;html=1;align=center;verticalAlign=middle;whiteSpace=wrap;rounded=0;fontColor=#1A1A1A;labelBackgroundColor=none;" vertex="1" parent="fNg0JsLdywj-r3i3CZQy-179">
          <mxGeometry y="55" width="140" height="85" as="geometry" />
        </mxCell>
        <mxCell id="fNg0JsLdywj-r3i3CZQy-183" value="" style="endArrow=none;startArrow=diamondThin;endFill=0;startFill=1;html=1;verticalAlign=bottom;labelBackgroundColor=none;strokeWidth=1;startSize=8;endSize=8;rounded=0;strokeColor=#736CA8;fontColor=default;entryX=0.75;entryY=0;entryDx=0;entryDy=0;exitX=0.75;exitY=1;exitDx=0;exitDy=0;" edge="1" parent="1" source="fNg0JsLdywj-r3i3CZQy-152" target="fNg0JsLdywj-r3i3CZQy-155">
          <mxGeometry width="160" relative="1" as="geometry">
            <mxPoint x="670" y="2230" as="sourcePoint" />
            <mxPoint x="830" y="2230" as="targetPoint" />
          </mxGeometry>
        </mxCell>
        <mxCell id="fNg0JsLdywj-r3i3CZQy-185" value="" style="endArrow=none;startArrow=diamondThin;endFill=0;startFill=0;html=1;verticalAlign=bottom;labelBackgroundColor=none;strokeWidth=1;startSize=8;endSize=8;rounded=0;strokeColor=#736CA8;fontColor=default;entryX=0;entryY=0.25;entryDx=0;entryDy=0;" edge="1" parent="1" target="fNg0JsLdywj-r3i3CZQy-158">
          <mxGeometry width="160" relative="1" as="geometry">
            <mxPoint x="780" y="2210" as="sourcePoint" />
            <mxPoint x="940" y="2210" as="targetPoint" />
          </mxGeometry>
        </mxCell>
        <mxCell id="fNg0JsLdywj-r3i3CZQy-187" value="hea&lt;span style=&quot;color: rgba(0, 0, 0, 0); font-family: monospace; font-size: 0px; text-align: start; text-wrap-mode: nowrap;&quot;&gt;%3CmxGraphModel%3E%3Croot%3E%3CmxCell%20id%3D%220%22%2F%3E%3CmxCell%20id%3D%221%22%20parent%3D%220%22%2F%3E%3CmxCell%20id%3D%222%22%20value%3D%22%22%20style%3D%22endArrow%3Dnone%3BstartArrow%3DdiamondThin%3BendFill%3D0%3BstartFill%3D0%3Bhtml%3D1%3BverticalAlign%3Dbottom%3BlabelBackgroundColor%3Dnone%3BstrokeWidth%3D1%3BstartSize%3D8%3BendSize%3D8%3Brounded%3D0%3BstrokeColor%3D%23736CA8%3BfontColor%3D%231A1A1A%3BentryX%3D0%3BentryY%3D0.25%3BentryDx%3D0%3BentryDy%3D0%3B%22%20edge%3D%221%22%20parent%3D%221%22%3E%3CmxGeometry%20width%3D%22160%22%20relative%3D%221%22%20as%3D%22geometry%22%3E%3CmxPoint%20x%3D%22780%22%20y%3D%222210%22%20as%3D%22sourcePoint%22%2F%3E%3CmxPoint%20x%3D%22900%22%20y%3D%222208%22%20as%3D%22targetPoint%22%2F%3E%3C%2FmxGeometry%3E%3C%2FmxCell%3E%3C%2Froot%3E%3C%2FmxGraphModel%3E&lt;/span&gt;d of department&amp;nbsp;" style="text;html=1;align=center;verticalAlign=middle;whiteSpace=wrap;rounded=0;fontColor=#1A1A1A;labelBackgroundColor=none;" vertex="1" parent="1">
          <mxGeometry x="800" y="2173" width="60" height="30" as="geometry" />
        </mxCell>
        <mxCell id="fNg0JsLdywj-r3i3CZQy-188" value="teach" style="text;html=1;align=center;verticalAlign=middle;whiteSpace=wrap;rounded=0;fontColor=#1A1A1A;labelBackgroundColor=none;" vertex="1" parent="1">
          <mxGeometry x="800" y="2241.5" width="60" height="30" as="geometry" />
        </mxCell>
        <mxCell id="fNg0JsLdywj-r3i3CZQy-191" value="classrom&amp;nbsp;" style="swimlane;fontStyle=0;align=center;verticalAlign=top;childLayout=stackLayout;horizontal=1;startSize=55;horizontalStack=0;resizeParent=1;resizeParentMax=0;resizeLast=0;collapsible=0;marginBottom=0;html=1;whiteSpace=wrap;strokeColor=#D0CEE2;fontColor=#1A1A1A;fillColor=#5D7F99;labelBackgroundColor=none;" vertex="1" parent="1">
          <mxGeometry x="900" y="2620" width="160" height="140" as="geometry" />
        </mxCell>
        <mxCell id="fNg0JsLdywj-r3i3CZQy-192" value="num of seats" style="text;html=1;align=center;verticalAlign=middle;whiteSpace=wrap;rounded=0;fontColor=#1A1A1A;labelBackgroundColor=none;" vertex="1" parent="fNg0JsLdywj-r3i3CZQy-191">
          <mxGeometry y="55" width="160" height="85" as="geometry" />
        </mxCell>
        <mxCell id="fNg0JsLdywj-r3i3CZQy-193" value="" style="endArrow=none;startArrow=none;endFill=0;startFill=0;endSize=8;html=1;verticalAlign=bottom;labelBackgroundColor=none;strokeWidth=3;rounded=0;strokeColor=#736CA8;fontColor=default;entryX=0.5;entryY=1;entryDx=0;entryDy=0;exitX=0.442;exitY=0.015;exitDx=0;exitDy=0;exitPerimeter=0;" edge="1" parent="1" source="fNg0JsLdywj-r3i3CZQy-191" target="fNg0JsLdywj-r3i3CZQy-166">
          <mxGeometry width="160" relative="1" as="geometry">
            <mxPoint x="982" y="2602" as="sourcePoint" />
            <mxPoint x="950" y="2530" as="targetPoint" />
          </mxGeometry>
        </mxCell>
        <mxCell id="fNg0JsLdywj-r3i3CZQy-194" value="1" style="text;html=1;align=center;verticalAlign=middle;whiteSpace=wrap;rounded=0;fontColor=#1A1A1A;labelBackgroundColor=none;" vertex="1" parent="1">
          <mxGeometry x="910" y="2590" width="60" height="30" as="geometry" />
        </mxCell>
        <mxCell id="fNg0JsLdywj-r3i3CZQy-195" value="personnal record" style="swimlane;fontStyle=0;align=center;verticalAlign=top;childLayout=stackLayout;horizontal=1;startSize=55;horizontalStack=0;resizeParent=1;resizeParentMax=0;resizeLast=0;collapsible=0;marginBottom=0;html=1;whiteSpace=wrap;strokeColor=#D0CEE2;fontColor=#1A1A1A;fillColor=#5D7F99;labelBackgroundColor=none;" vertex="1" parent="1">
          <mxGeometry x="1250" y="2160" width="160" height="140" as="geometry" />
        </mxCell>
        <mxCell id="fNg0JsLdywj-r3i3CZQy-196" value="print last name&amp;nbsp;&lt;div&gt;print first name&amp;nbsp;&lt;/div&gt;&lt;div&gt;print phone num&lt;/div&gt;&lt;div&gt;print email&lt;/div&gt;" style="text;html=1;align=center;verticalAlign=middle;whiteSpace=wrap;rounded=0;fontColor=#1A1A1A;labelBackgroundColor=none;" vertex="1" parent="fNg0JsLdywj-r3i3CZQy-195">
          <mxGeometry y="55" width="160" height="85" as="geometry" />
        </mxCell>
        <mxCell id="fNg0JsLdywj-r3i3CZQy-199" value="" style="endArrow=none;startArrow=none;endFill=0;startFill=0;endSize=8;html=1;verticalAlign=bottom;labelBackgroundColor=none;strokeWidth=3;rounded=0;strokeColor=#736CA8;fontColor=default;entryX=0;entryY=0;entryDx=0;entryDy=0;exitX=1;exitY=0;exitDx=0;exitDy=0;" edge="1" parent="1" source="fNg0JsLdywj-r3i3CZQy-166" target="fNg0JsLdywj-r3i3CZQy-180">
          <mxGeometry width="160" relative="1" as="geometry">
            <mxPoint x="1091" y="2422" as="sourcePoint" />
            <mxPoint x="1090" y="2320" as="targetPoint" />
          </mxGeometry>
        </mxCell>
        <mxCell id="fNg0JsLdywj-r3i3CZQy-207" value="" style="endArrow=diamondThin;endFill=1;endSize=24;html=1;rounded=0;exitX=-0.008;exitY=0.639;exitDx=0;exitDy=0;exitPerimeter=0;entryX=1.01;entryY=0.405;entryDx=0;entryDy=0;labelBackgroundColor=none;strokeColor=#736CA8;fontColor=default;entryPerimeter=0;" edge="1" parent="1" source="fNg0JsLdywj-r3i3CZQy-69" target="fNg0JsLdywj-r3i3CZQy-59">
          <mxGeometry width="160" relative="1" as="geometry">
            <mxPoint x="1012" y="1017" as="sourcePoint" />
            <mxPoint x="930" y="780" as="targetPoint" />
          </mxGeometry>
        </mxCell>
        <mxCell id="fNg0JsLdywj-r3i3CZQy-208" value="" style="edgeLabel;html=1;align=center;verticalAlign=middle;resizable=0;points=[];strokeColor=#D0CEE2;fontColor=#1A1A1A;fillColor=#5D7F99;labelBackgroundColor=none;" vertex="1" connectable="0" parent="fNg0JsLdywj-r3i3CZQy-207">
          <mxGeometry x="-0.6012" y="4" relative="1" as="geometry">
            <mxPoint as="offset" />
          </mxGeometry>
        </mxCell>
        <mxCell id="fNg0JsLdywj-r3i3CZQy-209" value="" style="endArrow=diamondThin;endFill=0;endSize=24;html=1;rounded=0;strokeColor=#736CA8;fontColor=default;entryX=0.188;entryY=-0.019;entryDx=0;entryDy=0;entryPerimeter=0;labelBackgroundColor=none;" edge="1" parent="1" target="fNg0JsLdywj-r3i3CZQy-31">
          <mxGeometry width="160" relative="1" as="geometry">
            <mxPoint x="560" y="244" as="sourcePoint" />
            <mxPoint x="702" y="527" as="targetPoint" />
          </mxGeometry>
        </mxCell>
        <mxCell id="fNg0JsLdywj-r3i3CZQy-210" value="Brrow" style="text;html=1;align=center;verticalAlign=middle;resizable=0;points=[];autosize=1;strokeColor=none;fillColor=none;fontColor=#1A1A1A;labelBackgroundColor=none;" vertex="1" parent="1">
          <mxGeometry x="870" y="320" width="50" height="30" as="geometry" />
        </mxCell>
        <mxCell id="fNg0JsLdywj-r3i3CZQy-211" value="" style="endArrow=none;dashed=1;html=1;rounded=0;strokeColor=#736CA8;fontColor=default;labelBackgroundColor=none;" edge="1" parent="1">
          <mxGeometry width="50" height="50" relative="1" as="geometry">
            <mxPoint x="810" y="360" as="sourcePoint" />
            <mxPoint x="966" y="360" as="targetPoint" />
          </mxGeometry>
        </mxCell>
        <mxCell id="fNg0JsLdywj-r3i3CZQy-213" value="served in&amp;nbsp;" style="text;html=1;align=center;verticalAlign=middle;resizable=0;points=[];autosize=1;strokeColor=none;fillColor=none;fontColor=#1A1A1A;labelBackgroundColor=none;" vertex="1" parent="1">
          <mxGeometry x="965" y="1438" width="80" height="30" as="geometry" />
        </mxCell>
        <mxCell id="fNg0JsLdywj-r3i3CZQy-214" value="Consums" style="text;html=1;align=center;verticalAlign=middle;resizable=0;points=[];autosize=1;strokeColor=none;fillColor=none;fontColor=#1A1A1A;labelBackgroundColor=none;" vertex="1" parent="1">
          <mxGeometry x="1075" y="1528" width="70" height="30" as="geometry" />
        </mxCell>
        <mxCell id="fNg0JsLdywj-r3i3CZQy-216" value="1..*" style="text;html=1;align=center;verticalAlign=middle;whiteSpace=wrap;rounded=0;fontColor=#1A1A1A;labelBackgroundColor=none;" vertex="1" parent="1">
          <mxGeometry x="920" y="2313" width="60" height="30" as="geometry" />
        </mxCell>
        <mxCell id="fNg0JsLdywj-r3i3CZQy-217" value="" style="endArrow=none;startArrow=none;endFill=0;startFill=0;endSize=8;html=1;verticalAlign=bottom;labelBackgroundColor=none;strokeWidth=3;rounded=0;strokeColor=#736CA8;fontColor=default;exitX=0.5;exitY=0;exitDx=0;exitDy=0;" edge="1" parent="1" source="fNg0JsLdywj-r3i3CZQy-165" target="fNg0JsLdywj-r3i3CZQy-164">
          <mxGeometry width="160" relative="1" as="geometry">
            <mxPoint x="970" y="2380" as="sourcePoint" />
            <mxPoint x="1070" y="2340" as="targetPoint" />
          </mxGeometry>
        </mxCell>
        <mxCell id="fNg0JsLdywj-r3i3CZQy-218" value="" style="endArrow=none;startArrow=none;endFill=0;startFill=0;endSize=8;html=1;verticalAlign=bottom;labelBackgroundColor=none;strokeWidth=3;rounded=0;strokeColor=#736CA8;fontColor=default;exitX=-0.007;exitY=0.115;exitDx=0;exitDy=0;exitPerimeter=0;" edge="1" parent="1" source="fNg0JsLdywj-r3i3CZQy-164">
          <mxGeometry width="160" relative="1" as="geometry">
            <mxPoint x="790" y="2357" as="sourcePoint" />
            <mxPoint x="770" y="2238" as="targetPoint" />
          </mxGeometry>
        </mxCell>
        <mxCell id="fNg0JsLdywj-r3i3CZQy-219" value="1" style="edgeLabel;html=1;align=center;verticalAlign=middle;resizable=0;points=[];strokeColor=#D0CEE2;fontColor=#1A1A1A;fillColor=#5D7F99;labelBackgroundColor=none;" vertex="1" connectable="0" parent="fNg0JsLdywj-r3i3CZQy-218">
          <mxGeometry x="-0.7478" y="1" relative="1" as="geometry">
            <mxPoint x="-3" y="-11" as="offset" />
          </mxGeometry>
        </mxCell>
        <mxCell id="fNg0JsLdywj-r3i3CZQy-221" value="" style="endArrow=none;dashed=1;html=1;dashPattern=1 3;strokeWidth=2;rounded=0;strokeColor=#736CA8;fontColor=default;labelBackgroundColor=none;" edge="1" parent="1">
          <mxGeometry width="50" height="50" relative="1" as="geometry">
            <mxPoint x="1190" y="2560" as="sourcePoint" />
            <mxPoint x="1190" y="2470" as="targetPoint" />
          </mxGeometry>
        </mxCell>
        <mxCell id="fNg0JsLdywj-r3i3CZQy-222" value="Grade" style="swimlane;fontStyle=0;align=center;verticalAlign=top;childLayout=stackLayout;horizontal=1;startSize=55;horizontalStack=0;resizeParent=1;resizeParentMax=0;resizeLast=0;collapsible=0;marginBottom=0;html=1;whiteSpace=wrap;strokeColor=#D0CEE2;fontColor=#1A1A1A;fillColor=#5D7F99;labelBackgroundColor=none;" vertex="1" parent="1">
          <mxGeometry x="1130" y="2560" width="140" height="140" as="geometry" />
        </mxCell>
        <mxCell id="fNg0JsLdywj-r3i3CZQy-223" value="&lt;div&gt;&lt;div&gt;&lt;br&gt;&lt;/div&gt;&lt;/div&gt;" style="text;html=1;align=center;verticalAlign=middle;whiteSpace=wrap;rounded=0;fontColor=#1A1A1A;labelBackgroundColor=none;" vertex="1" parent="fNg0JsLdywj-r3i3CZQy-222">
          <mxGeometry y="55" width="140" height="85" as="geometry" />
        </mxCell>
        <mxCell id="fNg0JsLdywj-r3i3CZQy-224" value="" style="endArrow=none;startArrow=none;endFill=0;startFill=0;endSize=8;html=1;verticalAlign=bottom;labelBackgroundColor=none;strokeWidth=3;rounded=0;strokeColor=#736CA8;fontColor=default;exitX=0.341;exitY=-0.016;exitDx=0;exitDy=0;exitPerimeter=0;" edge="1" parent="1" source="fNg0JsLdywj-r3i3CZQy-179">
          <mxGeometry width="160" relative="1" as="geometry">
            <mxPoint x="1290" y="2380" as="sourcePoint" />
            <mxPoint x="1398" y="2310" as="targetPoint" />
          </mxGeometry>
        </mxCell>
        <mxCell id="fNg0JsLdywj-r3i3CZQy-225" value="" style="endArrow=none;startArrow=none;endFill=0;startFill=0;endSize=8;html=1;verticalAlign=bottom;labelBackgroundColor=none;strokeWidth=3;rounded=0;strokeColor=#736CA8;fontColor=default;entryX=0;entryY=0.25;entryDx=0;entryDy=0;exitX=1.011;exitY=0.144;exitDx=0;exitDy=0;exitPerimeter=0;" edge="1" parent="1" source="fNg0JsLdywj-r3i3CZQy-164" target="fNg0JsLdywj-r3i3CZQy-196">
          <mxGeometry width="160" relative="1" as="geometry">
            <mxPoint x="1120" y="2290" as="sourcePoint" />
            <mxPoint x="1430" y="2290" as="targetPoint" />
          </mxGeometry>
        </mxCell>
        <mxCell id="fNg0JsLdywj-r3i3CZQy-226" value="1..*" style="text;html=1;align=center;verticalAlign=middle;resizable=0;points=[];autosize=1;strokeColor=none;fillColor=none;fontColor=#1A1A1A;labelBackgroundColor=none;" vertex="1" parent="1">
          <mxGeometry x="1050" y="2478" width="40" height="30" as="geometry" />
        </mxCell>
        <mxCell id="fNg0JsLdywj-r3i3CZQy-227" value="&lt;font style=&quot;font-size: 28px;&quot;&gt;&lt;b&gt;Exercise 4:&lt;/b&gt;&lt;/font&gt;" style="text;html=1;align=center;verticalAlign=middle;resizable=0;points=[];autosize=1;strokeColor=none;fillColor=none;fontColor=#1A1A1A;labelBackgroundColor=none;" vertex="1" parent="1">
          <mxGeometry x="425" y="2748" width="170" height="50" as="geometry" />
        </mxCell>
        <mxCell id="fNg0JsLdywj-r3i3CZQy-228" value="Airlines&amp;nbsp;" style="swimlane;fontStyle=0;align=center;verticalAlign=top;childLayout=stackLayout;horizontal=1;startSize=55;horizontalStack=0;resizeParent=1;resizeParentMax=0;resizeLast=0;collapsible=0;marginBottom=0;html=1;whiteSpace=wrap;strokeColor=#D0CEE2;fontColor=#1A1A1A;fillColor=#5D7F99;labelBackgroundColor=none;" vertex="1" parent="1">
          <mxGeometry x="720" y="2840" width="140" height="63" as="geometry" />
        </mxCell>
        <mxCell id="fNg0JsLdywj-r3i3CZQy-230" value="" style="line;strokeWidth=1;fillColor=none;align=left;verticalAlign=middle;spacingTop=-1;spacingLeft=3;spacingRight=3;rotatable=0;labelPosition=right;points=[];portConstraint=eastwest;strokeColor=#D0CEE2;fontColor=#1A1A1A;labelBackgroundColor=none;" vertex="1" parent="fNg0JsLdywj-r3i3CZQy-228">
          <mxGeometry y="55" width="140" height="8" as="geometry" />
        </mxCell>
        <mxCell id="fNg0JsLdywj-r3i3CZQy-231" value="client&amp;nbsp;" style="swimlane;fontStyle=0;align=center;verticalAlign=top;childLayout=stackLayout;horizontal=1;startSize=55;horizontalStack=0;resizeParent=1;resizeParentMax=0;resizeLast=0;collapsible=0;marginBottom=0;html=1;whiteSpace=wrap;strokeColor=#D0CEE2;fontColor=#1A1A1A;fillColor=#5D7F99;labelBackgroundColor=none;" vertex="1" parent="1">
          <mxGeometry x="1000" y="3130" width="140" height="63" as="geometry" />
        </mxCell>
        <mxCell id="fNg0JsLdywj-r3i3CZQy-233" value="" style="line;strokeWidth=1;fillColor=none;align=left;verticalAlign=middle;spacingTop=-1;spacingLeft=3;spacingRight=3;rotatable=0;labelPosition=right;points=[];portConstraint=eastwest;strokeColor=#D0CEE2;fontColor=#1A1A1A;labelBackgroundColor=none;" vertex="1" parent="fNg0JsLdywj-r3i3CZQy-231">
          <mxGeometry y="55" width="140" height="8" as="geometry" />
        </mxCell>
        <mxCell id="fNg0JsLdywj-r3i3CZQy-234" value="flights" style="swimlane;fontStyle=0;align=center;verticalAlign=top;childLayout=stackLayout;horizontal=1;startSize=55;horizontalStack=0;resizeParent=1;resizeParentMax=0;resizeLast=0;collapsible=0;marginBottom=0;html=1;whiteSpace=wrap;strokeColor=#D0CEE2;fontColor=#1A1A1A;fillColor=#5D7F99;labelBackgroundColor=none;" vertex="1" parent="1">
          <mxGeometry x="720" y="2990" width="140" height="178" as="geometry" />
        </mxCell>
        <mxCell id="fNg0JsLdywj-r3i3CZQy-235" value="&lt;br&gt;departure airport and an arrival airport&lt;br&gt;departure date and time and an arrival date and time" style="text;html=1;strokeColor=none;fillColor=none;align=left;verticalAlign=middle;spacingLeft=4;spacingRight=4;overflow=hidden;rotatable=0;points=[[0,0.5],[1,0.5]];portConstraint=eastwest;whiteSpace=wrap;fontColor=#1A1A1A;labelBackgroundColor=none;" vertex="1" parent="fNg0JsLdywj-r3i3CZQy-234">
          <mxGeometry y="55" width="140" height="115" as="geometry" />
        </mxCell>
        <mxCell id="fNg0JsLdywj-r3i3CZQy-236" value="" style="line;strokeWidth=1;fillColor=none;align=left;verticalAlign=middle;spacingTop=-1;spacingLeft=3;spacingRight=3;rotatable=0;labelPosition=right;points=[];portConstraint=eastwest;strokeColor=#D0CEE2;fontColor=#1A1A1A;labelBackgroundColor=none;" vertex="1" parent="fNg0JsLdywj-r3i3CZQy-234">
          <mxGeometry y="170" width="140" height="8" as="geometry" />
        </mxCell>
        <mxCell id="fNg0JsLdywj-r3i3CZQy-238" value="" style="endArrow=none;startArrow=none;endFill=0;startFill=0;endSize=8;html=1;verticalAlign=bottom;labelBackgroundColor=none;strokeWidth=3;rounded=0;strokeColor=#736CA8;fontColor=default;exitX=0.577;exitY=-0.021;exitDx=0;exitDy=0;exitPerimeter=0;entryX=0.562;entryY=0.388;entryDx=0;entryDy=0;entryPerimeter=0;" edge="1" parent="1" source="fNg0JsLdywj-r3i3CZQy-234" target="fNg0JsLdywj-r3i3CZQy-230">
          <mxGeometry width="160" relative="1" as="geometry">
            <mxPoint x="780" y="3047" as="sourcePoint" />
            <mxPoint x="800" y="2910" as="targetPoint" />
          </mxGeometry>
        </mxCell>
        <mxCell id="fNg0JsLdywj-r3i3CZQy-239" value="" style="endArrow=none;startArrow=none;endFill=0;startFill=0;endSize=8;html=1;verticalAlign=bottom;labelBackgroundColor=none;strokeWidth=3;rounded=0;strokeColor=#736CA8;fontColor=default;entryX=0.986;entryY=0.149;entryDx=0;entryDy=0;entryPerimeter=0;" edge="1" parent="1">
          <mxGeometry width="160" relative="1" as="geometry">
            <mxPoint x="1001.96" y="3160.79" as="sourcePoint" />
            <mxPoint x="860" y="3160.945" as="targetPoint" />
          </mxGeometry>
        </mxCell>
        <mxCell id="fNg0JsLdywj-r3i3CZQy-252" value="" style="edgeLabel;html=1;align=center;verticalAlign=middle;resizable=0;points=[];strokeColor=#D0CEE2;fontColor=#1A1A1A;fillColor=#5D7F99;" vertex="1" connectable="0" parent="fNg0JsLdywj-r3i3CZQy-239">
          <mxGeometry x="0.2692" y="-1" relative="1" as="geometry">
            <mxPoint as="offset" />
          </mxGeometry>
        </mxCell>
        <mxCell id="fNg0JsLdywj-r3i3CZQy-240" value="1..*" style="text;html=1;align=center;verticalAlign=middle;resizable=0;points=[];autosize=1;strokeColor=none;fillColor=none;fontColor=#1A1A1A;" vertex="1" parent="1">
          <mxGeometry x="750" y="2960" width="40" height="30" as="geometry" />
        </mxCell>
        <mxCell id="fNg0JsLdywj-r3i3CZQy-241" value="reservation" style="swimlane;fontStyle=0;align=center;verticalAlign=top;childLayout=stackLayout;horizontal=1;startSize=55;horizontalStack=0;resizeParent=1;resizeParentMax=0;resizeLast=0;collapsible=0;marginBottom=0;html=1;whiteSpace=wrap;strokeColor=#D0CEE2;fontColor=#1A1A1A;fillColor=#5D7F99;labelBackgroundColor=none;" vertex="1" parent="1">
          <mxGeometry x="1000" y="2950" width="140" height="113" as="geometry" />
        </mxCell>
        <mxCell id="fNg0JsLdywj-r3i3CZQy-242" value="confirmed&amp;nbsp;&lt;div&gt;&amp;nbsp;canceled&lt;/div&gt;" style="text;html=1;strokeColor=none;fillColor=none;align=left;verticalAlign=middle;spacingLeft=4;spacingRight=4;overflow=hidden;rotatable=0;points=[[0,0.5],[1,0.5]];portConstraint=eastwest;whiteSpace=wrap;fontColor=#1A1A1A;labelBackgroundColor=none;" vertex="1" parent="fNg0JsLdywj-r3i3CZQy-241">
          <mxGeometry y="55" width="140" height="50" as="geometry" />
        </mxCell>
        <mxCell id="fNg0JsLdywj-r3i3CZQy-243" value="" style="line;strokeWidth=1;fillColor=none;align=left;verticalAlign=middle;spacingTop=-1;spacingLeft=3;spacingRight=3;rotatable=0;labelPosition=right;points=[];portConstraint=eastwest;strokeColor=#D0CEE2;fontColor=#1A1A1A;labelBackgroundColor=none;" vertex="1" parent="fNg0JsLdywj-r3i3CZQy-241">
          <mxGeometry y="105" width="140" height="8" as="geometry" />
        </mxCell>
        <mxCell id="fNg0JsLdywj-r3i3CZQy-244" value="stopover" style="swimlane;fontStyle=0;align=center;verticalAlign=top;childLayout=stackLayout;horizontal=1;startSize=55;horizontalStack=0;resizeParent=1;resizeParentMax=0;resizeLast=0;collapsible=0;marginBottom=0;html=1;whiteSpace=wrap;strokeColor=#D0CEE2;fontColor=#1A1A1A;fillColor=#5D7F99;labelBackgroundColor=none;" vertex="1" parent="1">
          <mxGeometry x="480" y="3010" width="140" height="113" as="geometry" />
        </mxCell>
        <mxCell id="fNg0JsLdywj-r3i3CZQy-245" value="departure time and an arrival time." style="text;html=1;strokeColor=none;fillColor=none;align=left;verticalAlign=middle;spacingLeft=4;spacingRight=4;overflow=hidden;rotatable=0;points=[[0,0.5],[1,0.5]];portConstraint=eastwest;whiteSpace=wrap;fontColor=#1A1A1A;labelBackgroundColor=none;" vertex="1" parent="fNg0JsLdywj-r3i3CZQy-244">
          <mxGeometry y="55" width="140" height="50" as="geometry" />
        </mxCell>
        <mxCell id="fNg0JsLdywj-r3i3CZQy-246" value="" style="line;strokeWidth=1;fillColor=none;align=left;verticalAlign=middle;spacingTop=-1;spacingLeft=3;spacingRight=3;rotatable=0;labelPosition=right;points=[];portConstraint=eastwest;strokeColor=#D0CEE2;fontColor=#1A1A1A;labelBackgroundColor=none;" vertex="1" parent="fNg0JsLdywj-r3i3CZQy-244">
          <mxGeometry y="105" width="140" height="8" as="geometry" />
        </mxCell>
        <mxCell id="fNg0JsLdywj-r3i3CZQy-247" value="&amp;nbsp;airport" style="swimlane;fontStyle=0;align=center;verticalAlign=top;childLayout=stackLayout;horizontal=1;startSize=55;horizontalStack=0;resizeParent=1;resizeParentMax=0;resizeLast=0;collapsible=0;marginBottom=0;html=1;whiteSpace=wrap;strokeColor=#D0CEE2;fontColor=#1A1A1A;fillColor=#5D7F99;labelBackgroundColor=none;" vertex="1" parent="1">
          <mxGeometry x="550" y="3210" width="140" height="63" as="geometry" />
        </mxCell>
        <mxCell id="fNg0JsLdywj-r3i3CZQy-248" value="" style="line;strokeWidth=1;fillColor=none;align=left;verticalAlign=middle;spacingTop=-1;spacingLeft=3;spacingRight=3;rotatable=0;labelPosition=right;points=[];portConstraint=eastwest;strokeColor=#D0CEE2;fontColor=#1A1A1A;labelBackgroundColor=none;" vertex="1" parent="fNg0JsLdywj-r3i3CZQy-247">
          <mxGeometry y="55" width="140" height="8" as="geometry" />
        </mxCell>
        <mxCell id="fNg0JsLdywj-r3i3CZQy-249" value="Cities" style="swimlane;fontStyle=0;align=center;verticalAlign=top;childLayout=stackLayout;horizontal=1;startSize=55;horizontalStack=0;resizeParent=1;resizeParentMax=0;resizeLast=0;collapsible=0;marginBottom=0;html=1;whiteSpace=wrap;strokeColor=#D0CEE2;fontColor=#1A1A1A;fillColor=#5D7F99;labelBackgroundColor=none;" vertex="1" parent="1">
          <mxGeometry x="580" y="3350" width="140" height="63" as="geometry" />
        </mxCell>
        <mxCell id="fNg0JsLdywj-r3i3CZQy-250" value="" style="line;strokeWidth=1;fillColor=none;align=left;verticalAlign=middle;spacingTop=-1;spacingLeft=3;spacingRight=3;rotatable=0;labelPosition=right;points=[];portConstraint=eastwest;strokeColor=#D0CEE2;fontColor=#1A1A1A;labelBackgroundColor=none;" vertex="1" parent="fNg0JsLdywj-r3i3CZQy-249">
          <mxGeometry y="55" width="140" height="8" as="geometry" />
        </mxCell>
        <mxCell id="fNg0JsLdywj-r3i3CZQy-253" value="" style="endArrow=none;startArrow=none;endFill=0;startFill=0;endSize=8;html=1;verticalAlign=bottom;labelBackgroundColor=none;strokeWidth=3;rounded=0;strokeColor=#736CA8;fontColor=default;entryX=0.986;entryY=0.149;entryDx=0;entryDy=0;entryPerimeter=0;" edge="1" parent="1">
          <mxGeometry width="160" relative="1" as="geometry">
            <mxPoint x="1000" y="3040" as="sourcePoint" />
            <mxPoint x="858.04" y="3040.155" as="targetPoint" />
          </mxGeometry>
        </mxCell>
        <mxCell id="fNg0JsLdywj-r3i3CZQy-254" value="" style="edgeLabel;html=1;align=center;verticalAlign=middle;resizable=0;points=[];strokeColor=#D0CEE2;fontColor=#1A1A1A;fillColor=#5D7F99;" vertex="1" connectable="0" parent="fNg0JsLdywj-r3i3CZQy-253">
          <mxGeometry x="0.2692" y="-1" relative="1" as="geometry">
            <mxPoint as="offset" />
          </mxGeometry>
        </mxCell>
        <mxCell id="fNg0JsLdywj-r3i3CZQy-258" value="-" style="endArrow=none;startArrow=none;endFill=0;startFill=0;endSize=8;html=1;verticalAlign=bottom;labelBackgroundColor=none;strokeWidth=3;rounded=0;strokeColor=#736CA8;fontColor=default;entryX=0.571;entryY=0.625;entryDx=0;entryDy=0;entryPerimeter=0;" edge="1" parent="1" target="fNg0JsLdywj-r3i3CZQy-243">
          <mxGeometry width="160" relative="1" as="geometry">
            <mxPoint x="1080" y="3130" as="sourcePoint" />
            <mxPoint x="1080" y="3070" as="targetPoint" />
          </mxGeometry>
        </mxCell>
        <mxCell id="fNg0JsLdywj-r3i3CZQy-259" value="" style="endArrow=none;startArrow=none;endFill=0;startFill=0;endSize=8;html=1;verticalAlign=bottom;labelBackgroundColor=none;strokeWidth=3;rounded=0;strokeColor=#736CA8;fontColor=default;exitX=0.357;exitY=0;exitDx=0;exitDy=0;exitPerimeter=0;entryX=0.857;entryY=0.75;entryDx=0;entryDy=0;entryPerimeter=0;" edge="1" parent="1" source="fNg0JsLdywj-r3i3CZQy-247" target="fNg0JsLdywj-r3i3CZQy-246">
          <mxGeometry width="160" relative="1" as="geometry">
            <mxPoint x="801.96" y="3150" as="sourcePoint" />
            <mxPoint x="600" y="3130" as="targetPoint" />
          </mxGeometry>
        </mxCell>
        <mxCell id="fNg0JsLdywj-r3i3CZQy-260" value="" style="edgeLabel;html=1;align=center;verticalAlign=middle;resizable=0;points=[];strokeColor=#D0CEE2;fontColor=#1A1A1A;fillColor=#5D7F99;" vertex="1" connectable="0" parent="fNg0JsLdywj-r3i3CZQy-259">
          <mxGeometry x="0.2692" y="-1" relative="1" as="geometry">
            <mxPoint as="offset" />
          </mxGeometry>
        </mxCell>
        <mxCell id="fNg0JsLdywj-r3i3CZQy-261" value="" style="endArrow=none;startArrow=none;endFill=0;startFill=0;endSize=8;html=1;verticalAlign=bottom;labelBackgroundColor=none;strokeWidth=3;rounded=0;strokeColor=#736CA8;fontColor=default;exitX=0.429;exitY=0;exitDx=0;exitDy=0;exitPerimeter=0;entryX=0.629;entryY=0.75;entryDx=0;entryDy=0;entryPerimeter=0;" edge="1" parent="1" source="fNg0JsLdywj-r3i3CZQy-249" target="fNg0JsLdywj-r3i3CZQy-248">
          <mxGeometry width="160" relative="1" as="geometry">
            <mxPoint x="665" y="3340" as="sourcePoint" />
            <mxPoint x="640" y="3280" as="targetPoint" />
          </mxGeometry>
        </mxCell>
        <mxCell id="fNg0JsLdywj-r3i3CZQy-262" value="" style="edgeLabel;html=1;align=center;verticalAlign=middle;resizable=0;points=[];strokeColor=#D0CEE2;fontColor=#1A1A1A;fillColor=#5D7F99;" vertex="1" connectable="0" parent="fNg0JsLdywj-r3i3CZQy-261">
          <mxGeometry x="0.2692" y="-1" relative="1" as="geometry">
            <mxPoint as="offset" />
          </mxGeometry>
        </mxCell>
        <mxCell id="fNg0JsLdywj-r3i3CZQy-264" value="" style="endArrow=none;startArrow=none;endFill=0;startFill=0;endSize=8;html=1;verticalAlign=bottom;labelBackgroundColor=none;strokeWidth=3;rounded=0;strokeColor=#736CA8;fontColor=default;entryX=1;entryY=0.06;entryDx=0;entryDy=0;entryPerimeter=0;exitX=-0.007;exitY=0.191;exitDx=0;exitDy=0;exitPerimeter=0;" edge="1" parent="1" source="fNg0JsLdywj-r3i3CZQy-235" target="fNg0JsLdywj-r3i3CZQy-245">
          <mxGeometry width="160" relative="1" as="geometry">
            <mxPoint x="771.96" y="3066" as="sourcePoint" />
            <mxPoint x="630" y="3066.155" as="targetPoint" />
          </mxGeometry>
        </mxCell>
        <mxCell id="fNg0JsLdywj-r3i3CZQy-265" value="" style="edgeLabel;html=1;align=center;verticalAlign=middle;resizable=0;points=[];strokeColor=#D0CEE2;fontColor=#1A1A1A;fillColor=#5D7F99;" vertex="1" connectable="0" parent="fNg0JsLdywj-r3i3CZQy-264">
          <mxGeometry x="0.2692" y="-1" relative="1" as="geometry">
            <mxPoint as="offset" />
          </mxGeometry>
        </mxCell>
        <mxCell id="fNg0JsLdywj-r3i3CZQy-266" value="include" style="text;html=1;align=center;verticalAlign=middle;resizable=0;points=[];autosize=1;strokeColor=none;fillColor=none;fontColor=#1A1A1A;" vertex="1" parent="1">
          <mxGeometry x="630" y="3030" width="60" height="30" as="geometry" />
        </mxCell>
        <mxCell id="fNg0JsLdywj-r3i3CZQy-267" value="1..*" style="text;html=1;align=center;verticalAlign=middle;resizable=0;points=[];autosize=1;strokeColor=none;fillColor=none;fontColor=#1A1A1A;" vertex="1" parent="1">
          <mxGeometry x="860" y="3130" width="40" height="30" as="geometry" />
        </mxCell>
        <mxCell id="fNg0JsLdywj-r3i3CZQy-268" value="1" style="text;html=1;align=center;verticalAlign=middle;resizable=0;points=[];autosize=1;strokeColor=none;fillColor=none;fontColor=#1A1A1A;" vertex="1" parent="1">
          <mxGeometry x="865" y="2998" width="30" height="30" as="geometry" />
        </mxCell>
        <mxCell id="fNg0JsLdywj-r3i3CZQy-269" value="1..*" style="text;html=1;align=center;verticalAlign=middle;resizable=0;points=[];autosize=1;strokeColor=none;fillColor=none;fontColor=#1A1A1A;" vertex="1" parent="1">
          <mxGeometry x="610" y="3180" width="40" height="30" as="geometry" />
        </mxCell>
        <mxCell id="fNg0JsLdywj-r3i3CZQy-270" value="1..*" style="text;html=1;align=center;verticalAlign=middle;resizable=0;points=[];autosize=1;strokeColor=none;fillColor=none;fontColor=#1A1A1A;" vertex="1" parent="1">
          <mxGeometry x="650" y="3328" width="40" height="30" as="geometry" />
        </mxCell>
        <mxCell id="fNg0JsLdywj-r3i3CZQy-271" value="1" style="text;html=1;align=center;verticalAlign=middle;resizable=0;points=[];autosize=1;strokeColor=none;fillColor=none;fontColor=#1A1A1A;" vertex="1" parent="1">
          <mxGeometry x="1085" y="3068" width="30" height="30" as="geometry" />
        </mxCell>
        <mxCell id="fNg0JsLdywj-r3i3CZQy-272" value="offer" style="text;html=1;align=center;verticalAlign=middle;resizable=0;points=[];autosize=1;strokeColor=none;fillColor=none;fontColor=#1A1A1A;" vertex="1" parent="1">
          <mxGeometry x="805" y="2918" width="50" height="30" as="geometry" />
        </mxCell>
        <mxCell id="fNg0JsLdywj-r3i3CZQy-273" value="Concerns" style="text;html=1;align=center;verticalAlign=middle;resizable=0;points=[];autosize=1;strokeColor=none;fillColor=none;fontColor=#1A1A1A;" vertex="1" parent="1">
          <mxGeometry x="900" y="2998" width="70" height="30" as="geometry" />
        </mxCell>
        <mxCell id="fNg0JsLdywj-r3i3CZQy-274" value="serves" style="text;html=1;align=center;verticalAlign=middle;resizable=0;points=[];autosize=1;strokeColor=none;fillColor=none;fontColor=#1A1A1A;" vertex="1" parent="1">
          <mxGeometry x="640" y="3288" width="60" height="30" as="geometry" />
        </mxCell>
        <mxCell id="fNg0JsLdywj-r3i3CZQy-275" value="Book" style="text;html=1;align=center;verticalAlign=middle;resizable=0;points=[];autosize=1;strokeColor=none;fillColor=none;fontColor=#1A1A1A;" vertex="1" parent="1">
          <mxGeometry x="895" y="3118" width="50" height="30" as="geometry" />
        </mxCell>
      </root>
    </mxGraphModel>
  </diagram>
</mxfile>
